<svg id="Layer_1" data-name="Layer 1" xmlns="http://www.w3.org/2000/svg" viewBox="0 0 881.39 207.14"><defs><style>.cls-1{fill:#343333;fill-rule:evenodd;}.cls-2{fill:#39c5eb;}</style></defs><title>brandfolder-logo</title><path class="cls-1" d="M830.63,166.66V80.43l22.72.17,0,11.45,1.12-1.59c2.24-3.17,3.52-4.14,6.59-6.49l.72-.54a21.1,21.1,0,0,1,13.14-4h1.25a15.7,15.7,0,0,1,2.53.17l2.67.42-.47,19.86a24.2,24.2,0,0,0-3.54-.23H874.6a39.5,39.5,0,0,0-6.53.6,15.44,15.44,0,0,0-7,3.24,19.18,19.18,0,0,0-5.52,7.85c-1.44,3.47-2.17,8.32-2.17,14.42v40.92Z"/><path class="cls-1" d="M81.76,168.53c-5,0-10.2-.15-15.33-.43-4.83-.26-10.28-.77-16.64-1.54V46.07c3.53-.53,7.54-1,11.92-1.28,4.7-.33,10.65-.5,17.69-.5A96.91,96.91,0,0,1,96.85,45.8a43.3,43.3,0,0,1,14.23,5.08,26.17,26.17,0,0,1,9.49,9.49c2.3,3.93,3.47,8.93,3.47,14.88a30.09,30.09,0,0,1-1.57,9.85,27.67,27.67,0,0,1-4.2,7.93,26.11,26.11,0,0,1-6,5.6,16.05,16.05,0,0,1-6.66,2.7v1.22a36.72,36.72,0,0,1,8.46,2.32,29,29,0,0,1,8.6,5.38,28.23,28.23,0,0,1,6.6,9.17A31.87,31.87,0,0,1,132,133c0,7.17-1.36,13.12-4,17.67A30,30,0,0,1,117,161.51a47.26,47.26,0,0,1-16,5.5A117.85,117.85,0,0,1,81.76,168.53ZM73,149.08l.53.08c1.6.22,3.47.39,5.54.51s3.89.16,5.7.16a44.17,44.17,0,0,0,7.53-.68,22.85,22.85,0,0,0,7.46-2.7,16.57,16.57,0,0,0,5.79-5.6,17.28,17.28,0,0,0,2.29-9.36,20.63,20.63,0,0,0-1.74-9,14.71,14.71,0,0,0-5-5.82,20.66,20.66,0,0,0-7.66-3,49.14,49.14,0,0,0-9.66-.86H73ZM81.59,61.3a53,53,0,0,0-8,.51l-.52.08V95.45H81.1a39.36,39.36,0,0,0,8-.76,17.1,17.1,0,0,0,6.56-2.81,13.76,13.76,0,0,0,4.43-5.48,20.65,20.65,0,0,0,1.58-8.62,16.85,16.85,0,0,0-1.86-8.32A14.35,14.35,0,0,0,95,64.34a17.49,17.49,0,0,0-6.47-2.44A40.69,40.69,0,0,0,81.59,61.3Z"/><path class="cls-1" d="M142.6,166.66V80.43l22.84.17L165.35,92l1.14-1.6c2.24-3.16,3.5-4.12,6.53-6.42l.76-.58a21.06,21.06,0,0,1,13.12-4h1.26a15.7,15.7,0,0,1,2.53.17l2.68.42-.48,19.86a24.1,24.1,0,0,0-3.54-.23h-2.78a39.39,39.39,0,0,0-6.52.6,15.33,15.33,0,0,0-7,3.24,19.07,19.07,0,0,0-5.51,7.85c-1.44,3.46-2.17,8.32-2.17,14.42v40.92Z"/><path class="cls-1" d="M234.61,168.53A75.3,75.3,0,0,1,219,167a32.94,32.94,0,0,1-12.11-5,23.15,23.15,0,0,1-7.73-8.88,29.87,29.87,0,0,1-2.73-13.4,24.45,24.45,0,0,1,3.38-13.26,26.07,26.07,0,0,1,8.73-8.59,39.46,39.46,0,0,1,12.07-4.65,64,64,0,0,1,13.37-1.43c3.23,0,6.85.17,10.76.51l.67,0V109.7c0-9.11-7.13-14.13-20.08-14.13a56,56,0,0,0-21.51,4.35l0-19.64a72.26,72.26,0,0,1,24.5-4.1c13.81,0,25.54,3.5,31.39,9.34,5.35,5.36,7.73,13.91,7.73,27.73v50.2c-3.83,1.18-8.49,2.32-13.85,3.4A98.37,98.37,0,0,1,234.61,168.53Zm1.52-42.9c-5.62,0-10.13,1-13.41,3s-5.11,5.48-5.11,10.08c0,3.06.67,5.46,2,7.13a11.6,11.6,0,0,0,4.72,3.65,18.64,18.64,0,0,0,5.75,1.39c2,.18,3.73.26,5.2.26a31.82,31.82,0,0,0,5.17-.43c1.69-.28,3.15-.54,4.4-.76l.51-.1V126.57l-.52-.08c-1.34-.23-2.83-.43-4.42-.6A41.32,41.32,0,0,0,236.13,125.63Z"/><path class="cls-1" d="M333.47,166.49V117.81c0-6.15-1-11-2.87-14.33s-5.43-5.21-10.25-5.21a22.86,22.86,0,0,0-6.06.87,13.15,13.15,0,0,0-5.77,3.45,18.27,18.27,0,0,0-4.11,7.08,36.35,36.35,0,0,0-1.56,11.68v45.14H280.11V80.43H302.8V91.74l1.13-1.69a7.13,7.13,0,0,1,1.25-1.58c.24-.24.56-.56,1.11-1.15a28.94,28.94,0,0,1,5.36-4.46,29.65,29.65,0,0,1,6.88-3.22,27.11,27.11,0,0,1,8.41-1.24c9.67,0,17.05,2.66,21.92,7.91s7.36,13.7,7.36,25.07v55.11Z"/><path class="cls-1" d="M409.39,168.53a58.79,58.79,0,0,1-17-2.44,38.73,38.73,0,0,1-14.22-7.64,36.27,36.27,0,0,1-9.7-13.54c-2.39-5.57-3.59-12.42-3.59-20.35A52.32,52.32,0,0,1,368,106.62a43.23,43.23,0,0,1,8.82-14.57,41.75,41.75,0,0,1,13.89-9.73,44.83,44.83,0,0,1,18.16-3.58c1.86,0,3.92.08,6.28.25a33.86,33.86,0,0,1,6.22,1.08l.78.22v-36h22.58V163.78a119.78,119.78,0,0,1-15.61,3.48A131.52,131.52,0,0,1,409.39,168.53Zm1.34-72.62a20.42,20.42,0,0,0-10,2.36,20.81,20.81,0,0,0-7.05,6.26,26.53,26.53,0,0,0-4.06,9.16,45.88,45.88,0,0,0-1.28,10.87,36.63,36.63,0,0,0,1.72,11.93,20.09,20.09,0,0,0,4.8,7.94,17.85,17.85,0,0,0,7.25,4.28,30.36,30.36,0,0,0,9,1.29c1.9,0,3.68-.09,5.3-.25a30,30,0,0,0,5.35-1.12l.44-.13V97.41l-.46-.12a45.4,45.4,0,0,0-5.57-1.12A46.13,46.13,0,0,0,410.73,95.91Z"/><path class="cls-1" d="M466.51,166.49V97.44H452.66v-17h13.85V75.59a39.44,39.44,0,0,1,2.41-14.22A27.84,27.84,0,0,1,475.78,51a30.46,30.46,0,0,1,10.67-6.47,40.79,40.79,0,0,1,13.72-2.23h1.94a32.89,32.89,0,0,1,6.46.42l6.92,1.47-3.32,17.72-3.26-.65a28.45,28.45,0,0,0-5.53-.43,16.34,16.34,0,0,0-10,2.91c-2.81,2.11-4.3,6.4-4.3,12.4v4.33h28.45a35.55,35.55,0,0,0-7,6.38,41.31,41.31,0,0,0-6.36,10.63H489.08v69.05Z"/><path class="cls-1" d="M553,168.53a45.4,45.4,0,0,1-18.25-3.41A34.81,34.81,0,0,1,522,155.66a41.34,41.34,0,0,1-7.65-14.23,58.59,58.59,0,0,1-2.59-17.71,60.19,60.19,0,0,1,2.59-17.88A41.07,41.07,0,0,1,522,91.44,35.37,35.37,0,0,1,534.8,81.9,44.16,44.16,0,0,1,553,78.4a44.67,44.67,0,0,1,18.31,3.5,35.87,35.87,0,0,1,13,9.54A39.22,39.22,0,0,1,592,105.83a61.88,61.88,0,0,1,2.52,17.89A60.16,60.16,0,0,1,592,141.43a39.48,39.48,0,0,1-7.64,14.23,35.39,35.39,0,0,1-12.95,9.46A45.85,45.85,0,0,1,553,168.53Zm0-72.62c-6.39,0-11.09,2.46-14,7.31s-4.22,11.64-4.22,20.5,1.42,15.75,4.22,20.49,7.57,7.31,14,7.31,11.26-2.46,14.12-7.31,4.23-11.65,4.23-20.49S570,108,567.16,103.22,559.55,95.91,553,95.91Z"/><path class="cls-1" d="M633.25,167.51c-8.46,0-15.34-2.36-20.44-7s-7.65-12.36-7.65-22.94V44.29h22.58v88.05a50.24,50.24,0,0,0,.59,8.54,13.24,13.24,0,0,0,2,5.23,7.11,7.11,0,0,0,3.61,2.68,16.87,16.87,0,0,0,5.25.71,20.42,20.42,0,0,0,2.73-.13c2.33,4.7,6.13,9.29,12.52,15.1-4.51.9-13.22,2.62-14.2,2.7C637.59,167.4,635.32,167.51,633.25,167.51Z"/><path class="cls-1" d="M694.62,168.7a59.29,59.29,0,0,1-17-2.43,39,39,0,0,1-14.21-7.65,36.18,36.18,0,0,1-9.71-13.54c-2.38-5.52-3.58-12.37-3.58-20.35a51.89,51.89,0,0,1,3.08-17.93,42.67,42.67,0,0,1,8.82-14.58A41.93,41.93,0,0,1,676,82.49a44.9,44.9,0,0,1,18.16-3.58c2,0,4.13.08,6.28.25a33.32,33.32,0,0,1,6.22,1.08l.78.22v-36H730V164a123.38,123.38,0,0,1-15.6,3.48A131.9,131.9,0,0,1,694.62,168.7ZM696,96.08a20.57,20.57,0,0,0-10,2.35,21.09,21.09,0,0,0-7,6.27,26.8,26.8,0,0,0-4.07,9.16,45.7,45.7,0,0,0-1.29,10.87,36.47,36.47,0,0,0,1.73,11.94,20.3,20.3,0,0,0,4.8,7.93,18.13,18.13,0,0,0,7.25,4.28,30.43,30.43,0,0,0,9,1.28c1.89,0,3.67-.08,5.29-.24A31.41,31.41,0,0,0,707,148.8l.45-.13V97.57l-.47-.11a46,46,0,0,0-5.56-1.12A47.29,47.29,0,0,0,696,96.08Z"/><path class="cls-1" d="M785.81,168.53c-8,0-14.93-1.13-20.63-3.34a35.14,35.14,0,0,1-21.92-23.26,62.06,62.06,0,0,1,.08-35.75,41.9,41.9,0,0,1,7.9-14.49,37.63,37.63,0,0,1,13-9.72,43,43,0,0,1,18.06-3.57,38.45,38.45,0,0,1,16,3.16,35,35,0,0,1,11.87,8.63,36.5,36.5,0,0,1,7.4,13A52.25,52.25,0,0,1,820,119.5c0,2.12-.09,4.23-.26,6.28s-.31,3.33-.49,4.41H763l0,.66c.47,6.93,2.95,12,7.36,15.15s10.15,4.67,17.25,4.67a44.46,44.46,0,0,0,11.9-1.12l10.78-3,4.44,17.09A82.4,82.4,0,0,1,785.81,168.53ZM781.93,95.4c-5.79,0-10.26,1.66-13.28,4.93s-4.83,7.84-5.41,13.7l-.06.68h35.43l0-.64c-.23-5.51-1.78-10-4.62-13.46S787.06,95.4,781.93,95.4Z"/><polygon class="cls-2" points="22.74 22.74 144.24 22.74 144.24 32.82 144.24 33.07 144.24 43.23 131.85 43.23 155.63 67.01 179.39 43.23 166.98 43.23 166.98 33.07 166.98 32.82 166.98 0 0 0 0 207.14 166.98 207.14 166.98 184.4 22.74 184.4 22.74 22.74"/></svg>